<svg xmlns="http://www.w3.org/2000/svg" viewBox="0 0 579.53 401.54"><defs><style>.cls-1{fill:#fff;}</style></defs><g id="Calque_2" data-name="Calque 2"><g id="BACKGROUND_2" data-name="BACKGROUND 2"><path class="cls-1" d="M258.06,70.56a70.58,70.58,0,1,1-141.15-.2C117,31,148.15.12,187.87,0,226.68-.1,258.07,31.46,258.06,70.56Z"/><path class="cls-1" d="M403,140.1,332.66.54h46.89c6.53,12.9,13.22,26.12,19.9,39.34C405.87,52.6,412.34,65.29,418.7,78,429.75,100.19,423.45,126.22,403,140.1Z"/><path class="cls-1" d="M329.29,140.28c-23.54-46.73-46.83-93-70.43-139.83h46.8c4.86,9.7,9.82,19.62,14.82,29.52,8.08,16,16.31,31.94,24.26,48,10,20.2,5.91,43.61-10,58C333.23,137.35,331.5,138.55,329.29,140.28Z"/><path class="cls-1" d="M439.38,46.59c-13.23.06-23.27-10.06-23.23-23.38C416.21,9.71,426,0,439.49,0a23.05,23.05,0,0,1,23.12,23A23.27,23.27,0,0,1,439.38,46.59Z"/><path class="cls-1" d="M161.59,379.31c5.64-25.7,11-49.91,16.34-74.45H198.1l-24.41,94.7h-24c-5.54-23.84-11.1-47.8-16.89-72.71-5.7,24.68-11.23,48.62-16.82,72.8H92.11C84,368.27,76,336.82,67.72,304.86H88c5.45,24.42,10.91,48.93,16.72,75,5.88-25.84,11.45-50.25,17.07-74.95h22.81C150.13,329.12,155.67,353.4,161.59,379.31Z"/><path class="cls-1" d="M394,325.39c29.14-.14,39.74,20.88,35.46,47.5-3,18.89-17.85,29.49-38,28.44S358.61,388.68,357,369.47a59.77,59.77,0,0,1,.77-17C361.49,334.57,374.28,325.28,394,325.39Zm16.75,37.51c-.62-4.31-.87-8.38-1.83-12.27-1.92-7.8-7-11.88-14.32-12.12-8-.27-13.46,3.22-16,10.85a44.47,44.47,0,0,0-.1,27.66c2.42,7.75,7.74,11.47,15.06,11.3,7.51-.16,13.12-4.35,15.15-12.07C409.92,371.85,410.15,367.22,410.77,362.9Z"/><path class="cls-1" d="M511.66,399.65H492.91v-5.31c0-11.8.09-23.59-.07-35.38a39.18,39.18,0,0,0-1.36-10.36c-2.82-9.67-14-12.23-21.05-5-4.67,4.81-5.94,10.9-6,17.31-.06,12.69,0,25.38,0,38.54H445.67V327H463c.39,4,.79,8.08,1.28,13,1.07-1.45,1.71-2.24,2.27-3.09,6.55-9.91,16.61-13.79,28.32-10.9,9.8,2.41,16.31,10.2,16.68,22.08C512.06,365.06,511.66,382,511.66,399.65Z"/><path class="cls-1" d="M279,381.73l15.81-2.45c5.83,11.41,15.82,10.53,27.56,8,2.26-.49,5.2-4.21,5.27-6.52s-2.54-5.86-4.85-6.89c-4.63-2.07-9.9-2.64-14.83-4.09-5.44-1.61-11.17-2.82-16.12-5.44-12.75-6.76-13.55-24.78-1.84-33.2,10.83-7.79,33.87-7.88,44.73-.17a21.63,21.63,0,0,1,9,14L328,346.71c-5.75-8.36-12.67-11-22.43-7.79-2.43.79-5.54,3.9-5.66,6.09s2.63,5.8,4.92,6.69c5.62,2.17,11.73,3,17.59,4.6a83.77,83.77,0,0,1,10.48,3.41c8.08,3.34,12.63,9.39,12.68,18.29,0,9.22-4.24,15.93-12.77,19.47-13.16,5.48-26.61,5.18-39.91.61C285.55,395.57,281.43,389.82,279,381.73Z"/><path class="cls-1" d="M245.52,299.78H264v99.85H245.52Z"/><path class="cls-1" d="M206.93,326.93H225.4v72.71H206.93Z"/><path class="cls-1" d="M206.92,313.14V299.75h18.45v13.39Z"/><path class="cls-1" d="M91,200.18l-18.2,5.35C66.42,193.29,56,189.92,43.45,191.42,31.62,192.84,23.6,199,21.55,210.7a78.55,78.55,0,0,0-.11,26.14c2.08,12.33,10.3,19.2,22.73,20.6,10.86,1.21,21.17-.93,30.32-7.47V236.85H51.8V222.11H92.68v35.12c-10.55,10.25-24,14.71-38.56,16a72.37,72.37,0,0,1-16.51-.49C17,269.69,3.91,257.79.89,237.27a90,90,0,0,1,.93-30.57C5.1,190.75,16,180.94,32,177.1a68.72,68.72,0,0,1,33.36.16C77.52,180.34,86.16,187.6,91,200.18Z"/><path class="cls-1" d="M217.88,261.37v9.06c-12.84,6.41-23.22,2.44-26.94-10.79l-3.11,3.89a27.27,27.27,0,0,1-31.41,8.2c-8.4-3.39-12.95-11.54-12.26-22,.7-10.62,6.73-18.17,17.11-20.24,5.54-1.11,11.32-1.14,17-1.47,3.27-.2,6.56,0,9.65,0,2.11-8.59-.48-15.86-5.84-17.55-7.27-2.3-12,.59-15.31,9.78l-18.79-1c1.3-11.1,8.51-18.71,20.31-20.61a64.73,64.73,0,0,1,18.07-.34c13.31,1.63,21,10.39,21.45,23.83.32,9.93,0,19.88.18,29.82C208.11,259.76,209.54,261.07,217.88,261.37Zm-29.4-23.07c-3.61,0-6.89-.09-10.15,0a33.86,33.86,0,0,0-6,.77c-6.76,1.49-10,8-7.71,15,1.87,5.61,7.1,7.53,13.59,5C185.39,256.26,189.35,248.6,188.48,238.3Z"/><path class="cls-1" d="M550.15,228c1.44-10.5-1-16.41-7-17.74-7.55-1.68-11.5.9-14.31,9.95l-19.18-1c1.13-8.13,4.84-14.05,11.7-17.45a41,41,0,0,1,34.28-1.52c9.48,3.71,13.65,11.5,14,21.29.33,9.94,0,19.9.2,29.85.15,8.24,1.4,9.46,9.7,10.21v9.11c-13.39,5.75-22.19,2.32-26.8-10.8-1.35,1.65-2.52,3.13-3.74,4.57a27.4,27.4,0,0,1-31.79,6.76c-8.17-3.89-12-12.16-10.83-23.36,1-9.48,7.18-16.53,17.08-18.47,5.19-1,10.59-1.08,15.91-1.37C543,227.83,546.64,228,550.15,228ZM550,238c-5.54.43-11.24.38-16.73,1.42-6.06,1.15-8.82,7.77-6.81,14.65,1.53,5.23,6.43,7.37,12.49,5.45C547.21,256.86,551.8,248.39,550,238Z"/><path class="cls-1" d="M415.22,271.94H397.77c-.34-4.21-.67-8.34-1.06-13.25a22,22,0,0,0-1.9,2.24C388.52,271,379.7,275,368.07,273.18c-10.27-1.63-17.19-8.43-18.34-19.86-1-10-.73-20.22-.88-30.34-.12-7.72,0-15.45,0-23.67H368c0,11.92-.12,23.66.05,35.39a107.79,107.79,0,0,0,1.2,14.8c.77,5,3.78,8.37,8.88,9.39,5.34,1.07,10.47-.23,13.08-4.94,2.49-4.49,4.53-9.81,4.78-14.86.66-13,.22-26.14.22-39.76h19Z"/><path class="cls-1" d="M274.24,271.76c0-13.13.08-26-.05-38.83a60.58,60.58,0,0,0-1.12-11.5c-1-4.82-3.88-8.35-8.95-9.43a12.77,12.77,0,0,0-12.92,4.35c-4.3,4.86-5.27,10.81-5.3,17-.05,12.68,0,25.37,0,38.48H227.06V199.28h17.39c.33,4,.65,7.94,1,11.91l1.41,1.17a5.67,5.67,0,0,1,.36-2.08C254.55,199,264.42,195,277,198.38c9.89,2.64,15.79,11.2,16.11,24.32.3,12.32.1,24.66.11,37,0,3.85,0,7.71,0,12.07Z"/><path class="cls-1" d="M497.33,221.92l-18.52.93c-.63-1.54-1.26-3-1.82-4.48-1.83-4.84-5.46-7.29-10.47-7.72-5.17-.44-9.91,1-12.18,5.86a42.48,42.48,0,0,0,.1,37.8c2.35,4.93,7.21,6.63,12.65,6,5.25-.64,8.73-3.6,10.58-8.51.57-1.52,1-3.1,1.58-4.93l18.19.86c-.84,13.64-12.71,24.36-27.75,25.62-27.2,2.29-43.24-16.44-38.79-45.3,3.76-24.4,24.43-36.79,47.65-28.45C488.69,203.21,495,210.31,497.33,221.92Z"/><path class="cls-1" d="M312,171.84h18.22v99.9H312Z"/><path class="cls-1" d="M130.11,271.91h-18.3V199.23h18.3Z"/><path class="cls-1" d="M130.13,171.93v13.26H111.77V171.93Z"/></g></g></svg>