<svg xmlns="http://www.w3.org/2000/svg" viewBox="0 0 645 445"><defs><style>.cls-1{fill:#fff;}</style></defs><g id="Calque_2" data-name="Calque 2"><g id="BACKGROUND_2" data-name="BACKGROUND 2"><path class="cls-1" d="M286.17,73.25A73.26,73.26,0,1,1,139.65,73C139.71,32.2,172.07.12,213.31,0,253.59-.11,286.19,32.66,286.17,73.25Z"/><path class="cls-1" d="M436.67,145.44C412.31,97.12,388.16,49.22,363.62.56H412.3C419.08,14,426,27.68,433,41.41c6.67,13.2,13.39,26.37,20,39.61C464.42,104,457.87,131,436.67,145.44Z"/><path class="cls-1" d="M360.12,145.63,287,.47h48.59c5.05,10.07,10.19,20.37,15.38,30.64C359.36,47.73,367.9,64.27,376.16,81c10.39,21,6.13,45.27-10.34,60.18C364.21,142.59,362.41,143.83,360.12,145.63Z"/><path class="cls-1" d="M474.41,48.37c-13.73.06-24.16-10.45-24.11-24.28C450.35,10.08,460.52,0,474.52,0a24,24,0,0,1,24,23.9A24.18,24.18,0,0,1,474.41,48.37Z"/><path class="cls-1" d="M57.44,179.78q10.78,0,17.61,3a55.71,55.71,0,0,1,12.22,7.3,5.82,5.82,0,0,0,3.17,1.43q3,0,4-9.52h3.65q-.32,6.18-.48,15t-.15,23.4H93.78a86.51,86.51,0,0,0-3.41-16.58,26,26,0,0,0-8.49-12.13A26.7,26.7,0,0,0,72.43,186a32.84,32.84,0,0,0-11.34-2.06,24.64,24.64,0,0,0-14.92,4.52A34.12,34.12,0,0,0,36,200.73a66.19,66.19,0,0,0-5.87,17.53,105.41,105.41,0,0,0-1.91,20.23q0,28.56,7.86,41.74T58.71,293.4a20.88,20.88,0,0,0,6.66-1A16.79,16.79,0,0,0,70,290.22a8.46,8.46,0,0,0,3-3.41,12.28,12.28,0,0,0,.79-4.84V266.42q0-7.29-1.19-10.87a7.37,7.37,0,0,0-4.68-4.84,33.9,33.9,0,0,0-10.15-1.43v-3.17q3.33.16,8,.24l9.76.16q5.07.08,9.36.08,6.66,0,12.22-.16c3.7-.11,6.72-.21,9-.32v3.17c-3,.22-4.89,1.06-5.79,2.54S99,257,99,262.93v31.42H95.84a23.62,23.62,0,0,0-1.19-5.87q-1-3.18-3.41-3.18a10.76,10.76,0,0,0-2.94.56,31.11,31.11,0,0,0-5.63,2.78,77,77,0,0,1-12.38,5.63,40.7,40.7,0,0,1-13.64,2.3q-27.78,0-42.21-15.08T0,239.45Q0,221.36,7.38,208a53.35,53.35,0,0,1,20.31-20.79Q40.62,179.79,57.44,179.78Z"/><path class="cls-1" d="M146.61,210.57v69q0,6.66,2.3,9.05c1.54,1.58,4.15,2.38,7.86,2.38v3.33q-2.86-.17-8.89-.4t-12.22-.24q-6.18,0-12.53.24c-4.23.16-7.41.29-9.52.4V291c3.7,0,6.32-.8,7.85-2.38s2.3-4.61,2.3-9.05v-50q0-7.14-2.14-10.55t-8-3.42v-3.33q5.07.48,9.84.48,6.66,0,12.45-.56A86.13,86.13,0,0,0,146.61,210.57Zm-12.37-39.2q6.66,0,10.55,3.26a12.28,12.28,0,0,1,0,17.93q-3.9,3.25-10.55,3.25c-4.45,0-8-1.08-10.56-3.25a12.3,12.3,0,0,1,0-17.93C126.28,172.46,129.79,171.37,134.24,171.37Z"/><path class="cls-1" d="M184.53,295.46q-10.62,0-15.39-5.56a20,20,0,0,1-4.76-13.48q0-6.82,3.1-11.11a24.58,24.58,0,0,1,8-7.06,59.43,59.43,0,0,1,10.39-4.6q5.48-1.83,10.48-3.65a30.3,30.3,0,0,0,8.09-4.21,7.29,7.29,0,0,0,3.09-6V227.39a19.11,19.11,0,0,0-1.35-7.38,10.47,10.47,0,0,0-4.12-5,13.42,13.42,0,0,0-7.22-1.75,24,24,0,0,0-6.35.88,11.62,11.62,0,0,0-5.24,2.93,14.55,14.55,0,0,1,6.91,4.84,11.92,11.92,0,0,1,2.46,7.38,10.69,10.69,0,0,1-3.73,8.57,13.14,13.14,0,0,1-8.81,3.17q-5.72,0-8.65-3.57a13.15,13.15,0,0,1-2.93-8.65,12.15,12.15,0,0,1,2.3-7.61,25.5,25.5,0,0,1,6.42-5.71,39.18,39.18,0,0,1,10.72-4,61.06,61.06,0,0,1,13.56-1.43,52.73,52.73,0,0,1,13.17,1.51,21.12,21.12,0,0,1,9.84,5.47,17.49,17.49,0,0,1,4.76,9,67.24,67.24,0,0,1,1.11,13.41v43.16a13.08,13.08,0,0,0,.79,5.39,2.78,2.78,0,0,0,2.7,1.59,6.15,6.15,0,0,0,3-.8,14.91,14.91,0,0,0,2.69-1.9l1.59,2.7a23.5,23.5,0,0,1-7.69,4.36,29.7,29.7,0,0,1-9.76,1.51q-9.53,0-12.62-3.89a14.73,14.73,0,0,1-3.25-9,26.33,26.33,0,0,1-9.76,9.67A27.74,27.74,0,0,1,184.53,295.46Zm12.22-10.16a11.53,11.53,0,0,0,5.64-1.43,16,16,0,0,0,5.15-5.07V246.27a15.86,15.86,0,0,1-5.31,5.31q-3.42,2.14-7,4.61a21.07,21.07,0,0,0-6,6.26q-2.37,3.81-2.38,10.16,0,6.83,2.86,9.76A9.34,9.34,0,0,0,196.75,285.3Z"/><path class="cls-1" d="M304.81,210.09a30,30,0,0,1,10.87,1.67,16,16,0,0,1,6.58,4.52,19,19,0,0,1,3.73,7.77,55.42,55.42,0,0,1,1.19,12.86v42.68q0,6.66,2.3,9.05c1.53,1.58,4.15,2.38,7.86,2.38v3.33c-2-.11-5-.24-9-.4s-8-.24-11.9-.24-8,.08-11.82.24-6.8.29-8.81.4V291c3.18,0,5.4-.8,6.67-2.38s1.9-4.61,1.9-9.05V230.24a26.62,26.62,0,0,0-.79-6.9,8.56,8.56,0,0,0-2.86-4.6c-1.37-1.11-3.44-1.67-6.19-1.67a14.19,14.19,0,0,0-11.18,5.24,19.4,19.4,0,0,0-4.52,13.17v44.11c0,4.44.65,7.46,2,9.05s3.51,2.38,6.58,2.38v3.33q-2.85-.17-8.33-.4t-11.34-.24q-6,0-12.38.24t-9.52.4V291c3.7,0,6.32-.8,7.86-2.38s2.3-4.61,2.3-9.05v-50q0-7.14-2.15-10.55c-1.42-2.28-4.1-3.42-8-3.42v-3.33q5.08.48,9.84.48,6.66,0,12.45-.56a86.3,86.3,0,0,0,10.72-1.66v14.28q4-8.1,10.79-11.43A34.22,34.22,0,0,1,304.81,210.09Z"/><path class="cls-1" d="M375.58,170.11V279.59c0,4.44.76,7.46,2.3,9.05S382,291,385.73,291v3.33q-3-.17-9-.4t-12.22-.24q-6.2,0-12.46.24c-4.18.16-7.32.29-9.44.4V291c3.7,0,6.32-.8,7.86-2.38s2.3-4.61,2.3-9.05V189.15q0-7.14-2.15-10.56c-1.42-2.27-4.1-3.41-8-3.41v-3.33q5.08.48,9.84.48,6.51,0,12.38-.56A86,86,0,0,0,375.58,170.11Z"/><path class="cls-1" d="M471.57,210.57v66.48q0,7.14,2.22,10.55t7.94,3.42v3.33q-4.92-.48-9.84-.48-6.66,0-12.38.48a66.62,66.62,0,0,0-10.79,1.74V281.81a23.54,23.54,0,0,1-10.55,11.35,32.79,32.79,0,0,1-15,3.41,27.89,27.89,0,0,1-10.79-1.75,17.67,17.67,0,0,1-6.51-4.44,17.36,17.36,0,0,1-3.81-7.93,59.43,59.43,0,0,1-1.11-12.7V229.61q0-7.14-2.14-10.55t-8-3.42v-3.33q5.07.48,9.84.48,6.66,0,12.45-.56a86.13,86.13,0,0,0,10.71-1.66v65.69a30.26,30.26,0,0,0,.72,7,8.21,8.21,0,0,0,2.77,4.68,9.44,9.44,0,0,0,6,1.67,13.79,13.79,0,0,0,10.87-5.32,19.48,19.48,0,0,0,4.52-13.09V229.61q0-7.14-2.14-10.55t-8-3.42v-3.33q5.07.48,9.84.48,6.66,0,12.45-.56A86.13,86.13,0,0,0,471.57,210.57Z"/><path class="cls-1" d="M530,210.09a44.77,44.77,0,0,1,11.35,1.35,31.43,31.43,0,0,1,8.49,3.41,19.19,19.19,0,0,1,6.42,6.27,16.09,16.09,0,0,1,2.3,8.65,12.49,12.49,0,0,1-3.49,9.12,12.09,12.09,0,0,1-9,3.57,12.37,12.37,0,0,1-8.89-3.17,11.28,11.28,0,0,1-3.33-8.57,12,12,0,0,1,3.17-8.49,15.35,15.35,0,0,1,7.3-4.52,9.7,9.7,0,0,0-3.8-2.7,14.17,14.17,0,0,0-5.72-1.11,13.76,13.76,0,0,0-8.64,2.86,22.28,22.28,0,0,0-6.27,7.93,46.7,46.7,0,0,0-3.89,11.9,77,77,0,0,0-1.35,14.92q0,12.21,3.1,19.2t7.93,9.83a19.47,19.47,0,0,0,10.07,2.86,26.2,26.2,0,0,0,10.16-2.46q5.71-2.46,10.63-10.39l2.7.95a43.17,43.17,0,0,1-5.71,11.74,31.48,31.48,0,0,1-10.32,9.6q-6.35,3.72-15.55,3.73a38.48,38.48,0,0,1-18.64-4.52,32.75,32.75,0,0,1-13.33-14q-5-9.43-5-24.35,0-14.28,5.16-24a34.85,34.85,0,0,1,14-14.68A40.88,40.88,0,0,1,530,210.09Z"/><path class="cls-1" d="M588.35,295.46q-10.62,0-15.39-5.56a20,20,0,0,1-4.76-13.48q0-6.82,3.1-11.11a24.58,24.58,0,0,1,8-7.06,59.43,59.43,0,0,1,10.39-4.6q5.47-1.83,10.47-3.65a30.38,30.38,0,0,0,8.1-4.21,7.29,7.29,0,0,0,3.09-6V227.39A19.11,19.11,0,0,0,610,220a10.47,10.47,0,0,0-4.12-5,13.45,13.45,0,0,0-7.22-1.75,23.89,23.89,0,0,0-6.35.88,11.62,11.62,0,0,0-5.24,2.93,14.6,14.6,0,0,1,6.91,4.84,12,12,0,0,1,2.46,7.38,10.69,10.69,0,0,1-3.73,8.57,13.16,13.16,0,0,1-8.81,3.17q-5.71,0-8.65-3.57a13.15,13.15,0,0,1-2.93-8.65,12.15,12.15,0,0,1,2.3-7.61,25.5,25.5,0,0,1,6.42-5.71,39,39,0,0,1,10.71-4,61.15,61.15,0,0,1,13.57-1.43,52.73,52.73,0,0,1,13.17,1.51,21.12,21.12,0,0,1,9.84,5.47,17.49,17.49,0,0,1,4.76,9,67.24,67.24,0,0,1,1.11,13.41v43.16A13.08,13.08,0,0,0,635,288a2.78,2.78,0,0,0,2.7,1.59,6.15,6.15,0,0,0,3-.8,14.91,14.91,0,0,0,2.69-1.9l1.59,2.7a23.44,23.44,0,0,1-7.7,4.36,29.6,29.6,0,0,1-9.75,1.51q-9.52,0-12.62-3.89a14.73,14.73,0,0,1-3.25-9,26.33,26.33,0,0,1-9.76,9.67A27.74,27.74,0,0,1,588.35,295.46Zm12.22-10.16a11.47,11.47,0,0,0,5.63-1.43,15.93,15.93,0,0,0,5.16-5.07V246.27a15.86,15.86,0,0,1-5.31,5.31q-3.42,2.14-7,4.61a21.07,21.07,0,0,0-5.95,6.26q-2.37,3.81-2.38,10.16,0,6.83,2.86,9.76A9.34,9.34,0,0,0,600.57,285.3Z"/><path class="cls-1" d="M105.91,330.44v3.17a6.28,6.28,0,0,0-4.44,2.3,7.1,7.1,0,0,0-1,4.76,26.81,26.81,0,0,0,1.35,6.27l24.28,70.45-4.29,5.71,20.31-59.34,2.22,4.28L119.4,443.1a21,21,0,0,0-2.7-.16H111a21.08,21.08,0,0,0-2.7.16L72.75,343.77q-2.06-5.88-4.84-7.94a10.08,10.08,0,0,0-5.16-2.22v-3.17c3.18.1,6.93.21,11.27.31s8.46.16,12.38.16q6.34,0,11.34-.16C101.07,330.65,103.8,330.54,105.91,330.44Zm113.3,0v3.17a19.38,19.38,0,0,0-7.3,5.47q-3.81,4.21-6.67,13.41L177.32,443.1a21.08,21.08,0,0,0-2.7-.16h-5.71a21.08,21.08,0,0,0-2.7.16L132.89,342.18q-1.59-4.92-3.89-6.67a8.88,8.88,0,0,0-4.84-1.9v-3.17c3,.1,6.48.21,10.55.31s8.12.16,12.14.16q7,0,13.09-.16c4.07-.1,7.33-.21,9.76-.31v3.17a27.13,27.13,0,0,0-7.54,1.11,4.34,4.34,0,0,0-3.17,3.65q-.39,2.7,1.51,8.57L183,415.8l-3.65,6.51,17.93-57q3.81-12.06,3.65-18.89t-3.65-9.76q-3.5-2.93-10-3.09v-3.17l10.16.31c3.17.11,6.35.16,9.52.16q3.64,0,6.74-.16C215.8,330.65,217.62,330.54,219.21,330.44Z"/><path class="cls-1" d="M250.62,359v69q0,6.66,2.3,9.05c1.54,1.58,4.15,2.38,7.86,2.38v3.33q-2.86-.16-8.89-.4t-12.22-.24q-6.18,0-12.53.24c-4.23.16-7.41.29-9.52.4v-3.33c3.7,0,6.32-.8,7.85-2.38s2.3-4.61,2.3-9.05V378q0-7.14-2.14-10.55c-1.43-2.28-4.1-3.41-8-3.41v-3.34q5.07.48,9.84.48,6.66,0,12.45-.56A86.13,86.13,0,0,0,250.62,359Zm-12.37-39.19q6.66,0,10.55,3.25a12.28,12.28,0,0,1,0,17.93q-3.88,3.25-10.55,3.25c-4.45,0-8-1.08-10.56-3.25a12.3,12.3,0,0,1,0-17.93C230.29,320.89,233.8,319.81,238.25,319.81Z"/><path class="cls-1" d="M300,318.54V428q0,6.66,2.3,9.05c1.53,1.58,4.15,2.38,7.85,2.38v3.33q-3-.16-9-.4t-12.22-.24c-4.12,0-8.28.08-12.45.24s-7.33.29-9.45.4v-3.33c3.71,0,6.32-.8,7.86-2.38s2.3-4.61,2.3-9.05V337.58q0-7.14-2.14-10.55t-8-3.42v-3.33q5.09.48,9.84.48,6.51,0,12.38-.56A86,86,0,0,0,300,318.54Z"/><path class="cls-1" d="M348.36,358.52A37,37,0,0,1,360,360.19a28.55,28.55,0,0,1,7.21,3.25q5.4,3.66,6.67-4.76h3.33c-.21,3-.37,6.59-.47,10.87s-.16,10-.16,17.06h-3.34a50.77,50.77,0,0,0-3-11.59,23.37,23.37,0,0,0-6.43-9.36A16,16,0,0,0,353,362a11.84,11.84,0,0,0-7.77,2.62c-2.12,1.75-3.17,4.26-3.17,7.54a13,13,0,0,0,2.85,8.33,37.44,37.44,0,0,0,7.38,6.82q4.53,3.26,9.44,6.9A95.54,95.54,0,0,1,375.1,406q5.47,6,5.47,15.48A19.7,19.7,0,0,1,376.45,434a26.5,26.5,0,0,1-10.87,8.17,38,38,0,0,1-15,2.86,34.56,34.56,0,0,1-8.48-.95,29.55,29.55,0,0,1-6.43-2.38c-1.38-.64-2.67-1.24-3.89-1.83s-2.35-1.08-3.41-1.5a2.42,2.42,0,0,0-2.78,1.11,11.49,11.49,0,0,0-1.82,4.44h-3.33q.31-5.08.47-12.38t.16-19.36h3.33a61.13,61.13,0,0,0,3.49,15.16,25,25,0,0,0,6.91,10.31,16.33,16.33,0,0,0,11,3.73,12.41,12.41,0,0,0,7.62-2.62q3.49-2.61,3.49-8.65a15.87,15.87,0,0,0-4.52-11.58,115,115,0,0,0-11.5-10q-5.09-4.11-9.6-8.17a37,37,0,0,1-7.38-8.88,21.26,21.26,0,0,1-2.86-11,19.1,19.1,0,0,1,3.81-12.06A23.09,23.09,0,0,1,335,361,36.38,36.38,0,0,1,348.36,358.52Z"/><path class="cls-1" d="M431.19,358.52a45.52,45.52,0,0,1,20.31,4.29,30.21,30.21,0,0,1,13.65,13.8q4.91,9.52,4.91,25.23T465.15,427a30.38,30.38,0,0,1-13.65,13.73,49.76,49.76,0,0,1-40.38,0A30.71,30.71,0,0,1,397.31,427q-5-9.44-5-25.15t5-25.23a30.53,30.53,0,0,1,13.81-13.8A45.25,45.25,0,0,1,431.19,358.52Zm0,3.18q-6.35,0-10.63,9.44t-4.29,30.7q0,21.27,4.29,30.62t10.63,9.37q6.51,0,10.71-9.37t4.2-30.62q0-21.25-4.2-30.7T431.19,361.7Z"/><path class="cls-1" d="M538.93,358.52a30,30,0,0,1,10.87,1.67,16,16,0,0,1,6.58,4.52,19,19,0,0,1,3.73,7.78,55.27,55.27,0,0,1,1.19,12.85V428q0,6.66,2.3,9.05c1.53,1.58,4.15,2.38,7.86,2.38v3.33q-3-.16-9.05-.4t-11.9-.24q-6,0-11.82.24t-8.81.4v-3.33c3.18,0,5.4-.8,6.67-2.38s1.9-4.61,1.9-9.05V378.67a26.62,26.62,0,0,0-.79-6.9,8.6,8.6,0,0,0-2.86-4.6c-1.37-1.11-3.44-1.67-6.19-1.67a14.19,14.19,0,0,0-11.18,5.24,19.4,19.4,0,0,0-4.52,13.17V428c0,4.44.65,7.46,2,9.05s3.51,2.38,6.58,2.38v3.33q-2.85-.16-8.33-.4t-11.34-.24q-6,0-12.38.24t-9.52.4v-3.33c3.7,0,6.32-.8,7.86-2.38s2.3-4.61,2.3-9.05V378q0-7.14-2.15-10.55c-1.42-2.28-4.1-3.41-8-3.41v-3.34c3.38.32,6.67.48,9.84.48q6.66,0,12.45-.56A86.59,86.59,0,0,0,512.91,359v14.28q4-8.1,10.78-11.43A34.29,34.29,0,0,1,538.93,358.52Z"/></g></g></svg>